<svg width="158" height="56" viewBox="0 0 158 56" fill="none" xmlns="http://www.w3.org/2000/svg">
  <!-- Pixiu 2.0 Container Platform Logo — Blog Post Card (larger size) -->
  <g transform="translate(2, 4)" opacity="0.85">
    <!-- Main hexagon container shape -->
    <path d="M24 1.5L44 12V33L24 43.5L4 33V12L24 1.5Z" fill="#0F172A"/>
    <!-- Inner hexagon highlight -->
    <path d="M24 6.5L39 15V30L24 38.5L9 30V15L24 6.5Z" fill="#06B6D4" opacity="0.15"/>
    <!-- Pixiu head / letter P stylization -->
    <path d="M15 13V35H19.5V25H25.5C29.1 25 32 22.1 32 18.5C32 14.9 29.1 12 25.5 12H15V13ZM19.5 14H25.5C27.4 14 29 15.6 29 17.5C29 19.4 27.4 21 25.5 21H19.5V14Z" fill="#06B6D4"/>
    <!-- Wing / speed element (upper right) -->
    <path d="M29 10L40 4L34 16L29 10Z" fill="#06B6D4"/>
    <!-- Ear / horn element (top left) -->
    <path d="M13 10L6 4L15 7L13 10Z" fill="#F59E0B"/>
    <!-- Eye accent (gold) -->
    <circle cx="22.5" cy="16.5" r="2" fill="#F59E0B"/>
    <!-- Lower jaw / container bar -->
    <rect x="15.5" y="27" width="14" height="4" rx="0.8" fill="#06B6D4" opacity="0.55"/>
    <!-- Tech detail lines inside hexagon -->
    <rect x="26.5" y="24" width="4.5" height="8" rx="0.5" fill="#06B6D4" opacity="0.3"/>
    <rect x="32.5" y="26.5" width="4.5" height="7" rx="0.5" fill="#06B6D4" opacity="0.18"/>
  </g>
  <!-- Wordmark: pixiu -->
  <g transform="translate(52, 37)" fill="#E2E8F0" font-family="-apple-system, BlinkMacSystemFont, 'Segoe UI', Roboto, sans-serif" font-weight="700" font-size="28" letter-spacing="-0.02em">
    <text x="0" y="0">pixiu</text>
  </g>
</svg>
